<svg xmlns="http://www.w3.org/2000/svg" width="900" height="430" viewBox="0 0 900 430"><rect width="100%" height="100%" fill="white"/><text x="450.0" y="36" text-anchor="middle" font-family="Arial" font-size="24" font-weight="700">Observed obesity rate by age group</text><line x1="140" x2="860" y1="350.0" y2="350.0" stroke="#e5e7eb"/><text x="128" y="355.0" text-anchor="end" font-family="Arial" font-size="13" fill="#4b5563">0%</text><line x1="140" x2="860" y1="296.0" y2="296.0" stroke="#e5e7eb"/><text x="128" y="301.0" text-anchor="end" font-family="Arial" font-size="13" fill="#4b5563">10%</text><line x1="140" x2="860" y1="242.0" y2="242.0" stroke="#e5e7eb"/><text x="128" y="247.0" text-anchor="end" font-family="Arial" font-size="13" fill="#4b5563">20%</text><line x1="140" x2="860" y1="188.0" y2="188.0" stroke="#e5e7eb"/><text x="128" y="193.0" text-anchor="end" font-family="Arial" font-size="13" fill="#4b5563">30%</text><line x1="140" x2="860" y1="134.0" y2="134.0" stroke="#e5e7eb"/><text x="128" y="139.0" text-anchor="end" font-family="Arial" font-size="13" fill="#4b5563">40%</text><line x1="140" x2="860" y1="80.0" y2="80.0" stroke="#e5e7eb"/><text x="128" y="85.0" text-anchor="end" font-family="Arial" font-size="13" fill="#4b5563">50%</text><rect x="140.0" y="187.46" width="128.0" height="162.54" rx="5" fill="#4f46e5"/><text x="204.0" y="179.46" text-anchor="middle" font-family="Arial" font-size="14" font-weight="700">30.1%</text><text x="204.0" y="378" text-anchor="middle" font-family="Arial" font-size="13">18–29</text><rect x="288.0" y="137.78" width="128.0" height="212.22" rx="5" fill="#4f46e5"/><text x="352.0" y="129.78" text-anchor="middle" font-family="Arial" font-size="14" font-weight="700">39.3%</text><text x="352.0" y="378" text-anchor="middle" font-family="Arial" font-size="13">30–39</text><rect x="436.0" y="107.54" width="128.0" height="242.46" rx="5" fill="#4f46e5"/><text x="500.0" y="99.54" text-anchor="middle" font-family="Arial" font-size="14" font-weight="700">44.9%</text><text x="500.0" y="378" text-anchor="middle" font-family="Arial" font-size="13">40–54</text><rect x="584.0" y="118.88" width="128.0" height="231.12" rx="5" fill="#4f46e5"/><text x="648.0" y="110.88" text-anchor="middle" font-family="Arial" font-size="14" font-weight="700">42.8%</text><text x="648.0" y="378" text-anchor="middle" font-family="Arial" font-size="13">55–69</text><rect x="732.0" y="169.1" width="128.0" height="180.9" rx="5" fill="#4f46e5"/><text x="796.0" y="161.1" text-anchor="middle" font-family="Arial" font-size="14" font-weight="700">33.5%</text><text x="796.0" y="378" text-anchor="middle" font-family="Arial" font-size="13">70+</text></svg>